<?xml version="1.0" encoding="UTF-8"?><svg id="a" xmlns="http://www.w3.org/2000/svg" xmlns:xlink="http://www.w3.org/1999/xlink" viewBox="0 0 1125 1503"><defs><linearGradient id="b" x1="291.47" y1="378.25" x2="1122.39" y2="15.54" gradientUnits="userSpaceOnUse"><stop offset="0" stop-color="#d1d1d1"/><stop offset="0" stop-color="#c0c1c2"/><stop offset="0" stop-color="#bf00aa"/><stop offset=".17" stop-color="#a40fa4"/><stop offset=".53" stop-color="#613894"/><stop offset="1" stop-color="#00737f"/></linearGradient><linearGradient id="c" x1="217.09" y1="808.4" x2="311.59" y2="777.71" gradientUnits="userSpaceOnUse"><stop offset="0" stop-color="#d1d1d1"/><stop offset="0" stop-color="#b1b800"/><stop offset="0" stop-color="#d4008e"/><stop offset=".24" stop-color="#dc1d70"/><stop offset=".75" stop-color="#f36826"/><stop offset="1" stop-color="#ff9000"/><stop offset="1" stop-color="#e2ff36"/><stop offset="1" stop-color="#a90aff"/></linearGradient><linearGradient id="d" x1="57.9" y1="771.55" x2="262.32" y2="771.55" gradientUnits="userSpaceOnUse"><stop offset="0" stop-color="#d1d1d1"/><stop offset="0" stop-color="#b1b800"/><stop offset="0" stop-color="#fccd56"/><stop offset=".38" stop-color="#fdb838"/><stop offset="1" stop-color="#ff9000"/><stop offset="1" stop-color="#e2ff36"/><stop offset="1" stop-color="#ec00dd"/></linearGradient><linearGradient id="e" x1="55.33" y1="805.08" x2="264.34" y2="737.21" gradientUnits="userSpaceOnUse"><stop offset="0" stop-color="#d1d1d1"/><stop offset="0" stop-color="#b1b800"/><stop offset="0" stop-color="#2900e3"/><stop offset=".23" stop-color="#201ddc"/><stop offset=".72" stop-color="#0c68cc"/><stop offset="1" stop-color="#0097c3"/><stop offset="1" stop-color="#e2ff36"/><stop offset="1" stop-color="#ff9000"/></linearGradient><linearGradient id="f" x1="98.85" y1="790.89" x2="218.88" y2="751.91" xlink:href="#c"/><linearGradient id="g" x1="822.69" y1="322.12" x2="959.23" y2="277.78" gradientUnits="userSpaceOnUse"><stop offset="0" stop-color="#d1d1d1"/><stop offset="0" stop-color="#b1b800"/><stop offset="0" stop-color="#38008e"/><stop offset=".18" stop-color="#551578"/><stop offset=".56" stop-color="#a14c42"/><stop offset="1" stop-color="#ff9000"/><stop offset="1" stop-color="#e2ff36"/><stop offset="1" stop-color="#a90aff"/></linearGradient><linearGradient id="h" x1="535.13" y1="1255.62" x2="590.41" y2="1237.67" xlink:href="#g"/><linearGradient id="i" x1="1.33" y1="323.35" x2="56.61" y2="305.4" xlink:href="#g"/><linearGradient id="j" x1="101.62" y1="1006.99" x2="156.9" y2="989.04" xlink:href="#g"/><linearGradient id="k" x1="680.62" y1="600.99" x2="735.9" y2="583.04" xlink:href="#g"/><clipPath id="l"><rect x="889.9" y="1456.98" width="147" height="46" style="fill:none;"/></clipPath><clipPath id="m"><rect x="506.9" y="1437.98" width="168" height="65" style="fill:none;"/></clipPath><linearGradient id="n" x1="1013.68" y1="320.16" x2="1079.32" y2="298.84" gradientUnits="userSpaceOnUse"><stop offset="0" stop-color="#d1d1d1"/><stop offset="0" stop-color="#b1b800"/><stop offset="0" stop-color="#560d7d"/><stop offset=".26" stop-color="#420f9a"/><stop offset=".82" stop-color="#1015e5"/><stop offset="1" stop-color="#0017ff"/></linearGradient></defs><path d="M291,0c34.66,36.07,87.92,80.04,165.42,107.04,102.6,35.74,164.18,12.65,227.45,58.07,60.6,43.5,40.62,90.89,84.09,142.34,40.43,47.86,131.77,94.52,357.03,85.4V0H291Z" style="fill:url(#b); opacity:.4;"/><g><polygon points="263.87 743.57 215.75 793.54 263.87 842.88 313.21 793.54 263.87 743.57" style="fill:none; opacity:.38; stroke:url(#c); stroke-miterlimit:10; stroke-width:5px;"/><polygon points="158.82 667.39 57.9 772.2 158.82 875.7 262.32 772.2 158.82 667.39" style="fill:url(#d); opacity:.5; stroke:url(#e); stroke-miterlimit:10; stroke-width:19px;"/><polygon points="158.27 711.17 99.69 772 158.27 832.09 218.36 772 158.27 711.17" style="fill:none; opacity:.67; stroke:url(#f); stroke-miterlimit:10; stroke-width:10px;"/></g><path d="M962.44,294.3s-.98-53.04-61.88-65.81c-5.87-.72-28.27-2.74-49.87,11.88-25.65,17.36-30.42,44.83-31.16,49.51-.63,5.02-3.36,30.97,14.79,54.26,16.05,20.6,37.89,25.63,43.64,26.76,0,0,41.25,8.84,69.73-26.52,.54-.85,10.21-16.45,2.46-31.92-8.72-17.4-30.54-16.78-32.41-16.7-2.28,.1-23.03,1.37-29.47,17.68-4.53,11.49-1.32,27.41,8.84,32.41,8.31,4.09,18.09-.69,18.66-.98,8.4-4.25,11.12-12.51,12.77-11.79,1.54,.68,1.39,8.94-2.95,14.73-8.4,11.22-32.34,13.01-48.13,1.96-14.98-10.48-16.54-28.28-16.7-30.45-1.14-16.02,7.67-27.2,11.79-32.41,3.07-3.89,12.99-15.39,30.45-19.64,4.33-1.05,17.46-4.05,32.41,1.96,17.28,6.96,25.04,21.15,27.01,25.05Z" style="fill:url(#g); opacity:.12;"/><path d="M591.71,1244.36s-.4-21.47-25.05-26.64c-2.38-.29-11.45-1.11-20.19,4.81-10.38,7.03-12.32,18.15-12.61,20.04-.25,2.03-1.36,12.54,5.99,21.97,6.5,8.34,15.34,10.38,17.67,10.84,0,0,16.7,3.58,28.23-10.74,.22-.34,4.13-6.66,.99-12.92-3.53-7.05-12.36-6.79-13.12-6.76-.92,.04-9.32,.55-11.93,7.16-1.83,4.65-.53,11.1,3.58,13.12,3.36,1.66,7.33-.28,7.56-.4,3.4-1.72,4.5-5.07,5.17-4.77,.63,.28,.56,3.62-1.19,5.96-3.4,4.54-13.1,5.27-19.48,.8-6.07-4.24-6.7-11.45-6.76-12.33-.46-6.49,3.11-11.01,4.77-13.12,1.24-1.58,5.26-6.23,12.33-7.95,1.75-.43,7.07-1.64,13.12,.8,6.99,2.82,10.14,8.56,10.94,10.14Z" style="fill:url(#h); opacity:.12;"/><path d="M57.91,312.09s-.4-21.47-25.05-26.64c-2.38-.29-11.45-1.11-20.19,4.81C2.28,297.29,.35,308.41,.05,310.3c-.25,2.03-1.36,12.54,5.99,21.97,6.5,8.34,15.34,10.38,17.67,10.84,0,0,16.7,3.58,28.23-10.74,.22-.34,4.13-6.66,.99-12.92-3.53-7.05-12.36-6.79-13.12-6.76-.92,.04-9.32,.55-11.93,7.16-1.83,4.65-.53,11.1,3.58,13.12,3.36,1.66,7.33-.28,7.56-.4,3.4-1.72,4.5-5.07,5.17-4.77,.63,.28,.56,3.62-1.19,5.96-3.4,4.54-13.1,5.27-19.48,.8-6.07-4.24-6.7-11.45-6.76-12.33-.46-6.49,3.11-11.01,4.77-13.12,1.24-1.58,5.26-6.23,12.33-7.95,1.75-.43,7.07-1.64,13.12,.8,6.99,2.82,10.14,8.56,10.94,10.14Z" style="fill:url(#i); opacity:.12;"/><path d="M158.2,995.73s-.4-21.47-25.05-26.64c-2.38-.29-11.45-1.11-20.19,4.81-10.38,7.03-12.32,18.15-12.61,20.04-.25,2.03-1.36,12.54,5.99,21.97,6.5,8.34,15.34,10.38,17.67,10.84,0,0,16.7,3.58,28.23-10.74,.22-.34,4.13-6.66,.99-12.92-3.53-7.05-12.36-6.79-13.12-6.76-.92,.04-9.32,.55-11.93,7.16-1.83,4.65-.53,11.1,3.58,13.12,3.36,1.66,7.33-.28,7.56-.4,3.4-1.72,4.5-5.07,5.17-4.77,.63,.28,.56,3.62-1.19,5.96-3.4,4.54-13.1,5.27-19.48,.8-6.07-4.24-6.7-11.45-6.76-12.33-.46-6.49,3.11-11.01,4.77-13.12,1.24-1.58,5.26-6.23,12.33-7.95,1.75-.43,7.07-1.64,13.12,.8,6.99,2.82,10.14,8.56,10.94,10.14Z" style="fill:url(#j); opacity:.12;"/><path d="M737.2,589.73s-.4-21.47-25.05-26.64c-2.38-.29-11.45-1.11-20.19,4.81-10.38,7.03-12.32,18.15-12.61,20.04-.25,2.03-1.36,12.54,5.99,21.97,6.5,8.34,15.34,10.38,17.67,10.84,0,0,16.7,3.58,28.23-10.74,.22-.34,4.13-6.66,.99-12.92-3.53-7.05-12.36-6.79-13.12-6.76-.92,.04-9.32,.55-11.93,7.16-1.83,4.65-.53,11.1,3.58,13.12,3.36,1.66,7.33-.28,7.56-.4,3.4-1.72,4.5-5.07,5.17-4.77,.63,.28,.56,3.62-1.19,5.96-3.4,4.54-13.1,5.27-19.48,.8-6.07-4.24-6.7-11.45-6.76-12.33-.46-6.49,3.11-11.01,4.77-13.12,1.24-1.58,5.26-6.23,12.33-7.95,1.75-.43,7.07-1.64,13.12,.8,6.99,2.82,10.14,8.56,10.94,10.14Z" style="fill:url(#k); opacity:.12;"/><g><g><path d="M128.9,1502.98s.2-14.64,7.2-25.1c9.59-14.31,24.6-17.68,27.76-18.32,0,0,37.44-25.19,46.79,8.73,.36-.13,3.39-1.16,6.25,.68,2.48,1.59,3.02,4.18,3.11,4.64,1.02-1.2,10.13-11.58,23.71-10.44,10.33,.87,16.85,8.09,18.95,10.44,7.99,8.95,9.23,29.36,9.23,29.36H128.9" style="fill:#8bc53f; opacity:.43;"/><path d="M271.9,1502.98s-18.7-19.83-34.87-27.18c-15.41-7-24.86-6.21-27.12-5.74-9.04,1.91-16.27,5.74-16.27,5.74,0,0-45.94,14.68-58.11,12.21-.66-.13-2.98-.69-4.92,.53-3.62,2.26-3.42,9.1-2.71,14.45h144" style="fill:#006838; opacity:.43;"/><path d="M138.89,1503.01s-.56-29.98,24.12-26.43c0,0,24.67-25.19,45.09,0,0,0,51.9-18.11,51.9,15.6,1.05-.05,5.12-.13,8.9,2.8,3.83,2.97,4.74,7.02,4.94,8.03H138.89Z" style="fill:#009345; opacity:.43;"/></g><g style="clip-path:url(#l);"><g><path d="M893.85,1503.22s3.4-37.71,33.18-37.1c0,0,37.44-25.19,46.79,8.73,2.23,.25,4.46,.51,6.68,.76,.89,1.52,1.78,3.04,2.67,4.55,0,0,20.65-23.66,42.66,0,12.82,15.37,12.45,23.76,8.62,28.61-14.76,18.69-95.99,3.95-140.61-5.56Z" style="fill:#8bc53f; opacity:.43;"/><path d="M911.72,1512.64h-21.27s-3.91-20.56,8.25-18.08c12.17,2.47,58.11-12.21,58.11-12.21,0,0,28.93-15.3,43.39,0,14.46,15.3,34.26,26.43,34.26,26.43l-.2,3.86h-122.55" style="fill:#006838; opacity:.43;"/><path d="M902.07,1511.56s-.56-29.98,24.12-26.43c0,0,24.67-25.19,45.09,0,0,0,51.9-18.11,51.9,15.6l13.84,10.83h-134.95Z" style="fill:#009345; opacity:.43;"/></g></g><g style="clip-path:url(#m);"><g><path d="M525.87,1511.2c-6.3-8.46-6.56-14.23-5.74-17.87,1.52-6.72,7-7.29,12.63-17.49,4.47-8.09,2.7-10.79,6.51-15.7,2.93-3.77,8.67-8.24,21.25-9.51,7.1-10.26,11.93-12.05,15.13-11.55,6.14,.97,6.99,10.5,14.89,11.91,4.66,.83,6.61-2.08,13.19-1.28,4.06,.5,7.25,2.09,9.36,3.4,.57,1.19,1.14,2.39,1.71,3.58,2.55,.51,5.1,1.01,7.65,1.52,9.82-5.09,14.52-4.48,16.98-2.71,4.67,3.36,2.11,11.48,7.27,14.62,4.23,2.58,8.26-1.47,12.64-.17,9.23,2.74,14.19,27.84,8.62,39.37-13.32,27.59-102.76,10.53-142.08,1.85Z" style="fill:#8bc53f; opacity:.43;"/><path d="M551.59,1508.86h-21.27c-.84-4.68-2.11-15.77,4.47-24.82,2.05-2.81,4.64-6.73,9.38-8.21,4.45-1.39,6.88,.52,10.21-1.28,4.12-2.22,4.33-7.26,5.93-10.97,2.24-5.2,8.59-10.96,26.4-13.7,3.1,1.78,7.84,3.89,13.61,3.83,9.25-.1,11.15-5.66,17.02-4.68,10.04,1.68,10.44,18.98,22.31,21.55,4.5,.97,5.24-1.34,10.21,0,6.58,1.77,10.38,7.2,15.13,14.19,2.75,4.05,6.44,10.31,9.35,18.78-.07,1.77-.13,3.55-.2,5.32h-122.55Z" style="fill:#006838; opacity:.43;"/><path d="M510.03,1502.97c-3.91-13.06-1.84-19.31,.95-22.61,3.48-4.1,8.25-3.79,15.31-9.36,4.64-3.66,7.58-7.73,9.36-10.64,3.5-.38,8.87-1.32,14.85-4,5.16-2.31,5.93-3.74,10.4-5,2.17-.61,11.3-3.27,16.64,1.28,2.44,2.08,2.1,3.89,4.9,6.02,3.16,2.4,7,2.69,9.78,2.55,12.54-3.67,25.46-.31,32.76,8.51,5.84,7.06,6.18,15.31,6.15,18.34,.89,.04,6.89,.38,10.87,5.48,3.05,3.91,3.02,8.2,2.97,9.42h-134.95Z" style="fill:#009345; opacity:.43;"/></g></g></g><g><path d="M166.48,800.62c-.87-.14-1.75-.05-2.56,.26v-19.74c3.98-1.86,6.59-5.89,6.59-10.36,0-6.3-5.13-11.43-11.43-11.43s-11.43,5.13-11.43,11.43c0,4.46,2.61,8.49,6.59,10.36v13.15c-.8-.31-1.68-.41-2.56-.26-1.87,.31-3.37,1.77-3.86,3.63-.85-.37-1.79-.49-2.73-.33-1.87,.31-3.37,1.77-3.86,3.63-.85-.37-1.79-.49-2.73-.33-2.3,.37-4.04,2.5-4.04,4.95v10.57c0,1.74,.21,3.48,.64,5.17l2.11,8.46c.36,1.45,.54,2.93,.54,4.42v10.75c0,.85,.69,1.54,1.54,1.54s1.54-.69,1.54-1.54v-10.75c0-1.74-.21-3.48-.64-5.17l-2.11-8.46c-.36-1.44-.54-2.93-.54-4.42v-10.57c0-.94,.64-1.77,1.45-1.91,.53-.09,1.04,.05,1.44,.39,.39,.33,.62,.82,.62,1.34,0,.85,.69,1.54,1.54,1.54s1.54-.69,1.54-1.54v-3.12c0-.94,.64-1.77,1.45-1.91,.53-.09,1.04,.05,1.44,.39,.39,.33,.62,.82,.62,1.34,0,.85,.69,1.54,1.54,1.54s1.54-.69,1.54-1.54v-3.12c0-.94,.64-1.77,1.45-1.91,.53-.09,1.04,.05,1.44,.39,.39,.33,.62,.82,.62,1.34,0,.85,.69,1.54,1.54,1.54s1.54-.69,1.54-1.54v-27.84c0-.94,.64-1.77,1.45-1.91,.53-.09,1.04,.05,1.44,.39,.39,.33,.62,.82,.62,1.34v34.61c0,.85,.69,1.54,1.54,1.54s1.54-.69,1.54-1.54c0-.52,.23-1,.62-1.34,.4-.34,.91-.48,1.44-.39,.81,.13,1.45,.97,1.45,1.91v10.84c0,1.33-.15,2.66-.43,3.96l-2.35,10.59c-.34,1.52-.51,3.07-.51,4.62v9.36c0,.85,.69,1.54,1.54,1.54s1.54-.69,1.54-1.54v-9.36c0-1.33,.15-2.66,.43-3.96l2.35-10.59c.34-1.52,.51-3.07,.51-4.62v-10.84c0-2.45-1.73-4.57-4.04-4.95Zm-8.19-34.61c-2.3,.37-4.04,2.5-4.04,4.95v6.63c-2.16-1.54-3.51-4.06-3.51-6.8,0-4.6,3.74-8.35,8.35-8.35s8.35,3.74,8.35,8.35c0,2.74-1.35,5.26-3.51,6.8v-6.8c0-1.42-.62-2.76-1.7-3.69-1.08-.92-2.52-1.32-3.93-1.09Z" style="fill:#0647ff; opacity:.67;"/><path d="M131.08,769.12c.06,0,.12,.01,.18,.01,.77,0,1.44-.58,1.53-1.37,.12-1.03,.3-2.06,.53-3.06,.19-.83-.32-1.66-1.15-1.85-.83-.19-1.66,.32-1.85,1.15-.26,1.12-.46,2.27-.59,3.42-.1,.85,.51,1.61,1.36,1.71Z" style="fill:#0647ff; opacity:.67;"/><path d="M182.98,759.39c.26,.55,.82,.88,1.39,.88,.22,0,.45-.05,.66-.15,.77-.37,1.09-1.29,.73-2.06-.5-1.04-1.06-2.06-1.68-3.03-.45-.72-1.41-.94-2.13-.48-.72,.45-.94,1.41-.48,2.13,.55,.87,1.06,1.79,1.5,2.72Z" style="fill:#0647ff; opacity:.67;"/><path d="M139.95,751.87c.38,0,.76-.14,1.05-.42,.75-.71,1.56-1.37,2.39-1.99,.69-.51,.83-1.47,.33-2.16-.51-.69-1.47-.83-2.16-.33-.93,.68-1.82,1.43-2.66,2.22-.62,.58-.65,1.56-.07,2.18,.3,.32,.71,.49,1.13,.49Z" style="fill:#0647ff; opacity:.67;"/><path d="M133.37,759.56c.22,.11,.46,.17,.69,.17,.56,0,1.11-.31,1.38-.85,.47-.92,.99-1.82,1.56-2.69,.47-.71,.28-1.67-.43-2.14s-1.67-.28-2.14,.43c-.64,.96-1.22,1.97-1.74,3-.38,.76-.08,1.69,.68,2.07Z" style="fill:#0647ff; opacity:.67;"/><path d="M184.98,765.26c.21,1.01,.37,2.04,.47,3.07,.07,.8,.75,1.4,1.53,1.4,.05,0,.09,0,.14,0,.85-.08,1.47-.83,1.39-1.68-.11-1.15-.28-2.3-.52-3.43-.18-.83-1-1.37-1.83-1.19-.83,.18-1.36,1-1.19,1.83Z" style="fill:#0647ff; opacity:.67;"/><path d="M167.02,745.53c.98,.31,1.96,.68,2.9,1.1,.21,.09,.42,.14,.63,.14,.59,0,1.15-.34,1.41-.91,.35-.78,0-1.69-.77-2.04-1.05-.47-2.14-.89-3.24-1.23-.81-.25-1.68,.2-1.93,1.01-.25,.81,.2,1.68,1.01,1.93Z" style="fill:#0647ff; opacity:.67;"/><path d="M157.82,744.35c1.03-.05,2.08-.04,3.11,.03,.04,0,.07,0,.11,0,.8,0,1.48-.62,1.54-1.44,.06-.85-.58-1.59-1.43-1.64-1.15-.08-2.32-.09-3.46-.04-.85,.04-1.51,.76-1.47,1.61s.76,1.51,1.61,1.47Z" style="fill:#0647ff; opacity:.67;"/><path d="M148.17,746.52c.2,0,.4-.04,.6-.12,.95-.4,1.93-.75,2.93-1.04,.82-.24,1.29-1.09,1.05-1.91-.24-.82-1.09-1.29-1.91-1.05-1.11,.32-2.21,.71-3.27,1.16-.78,.33-1.15,1.24-.82,2.02,.25,.59,.82,.94,1.42,.94Z" style="fill:#0647ff; opacity:.67;"/><path d="M175.24,749.82c.82,.63,1.61,1.32,2.35,2.04,.3,.29,.69,.44,1.08,.44s.8-.16,1.1-.46c.6-.61,.58-1.59-.03-2.18-.82-.81-1.7-1.57-2.62-2.27-.67-.52-1.64-.4-2.16,.28-.52,.67-.4,1.64,.28,2.16Z" style="fill:#0647ff; opacity:.67;"/><path d="M133.35,777.02c-.24-1-.43-2.03-.55-3.06-.1-.85-.87-1.45-1.71-1.35-.85,.1-1.45,.87-1.35,1.71,.14,1.15,.34,2.3,.61,3.41,.17,.71,.8,1.18,1.5,1.18,.12,0,.24-.01,.36-.04,.83-.2,1.34-1.03,1.14-1.86Z" style="fill:#0647ff; opacity:.67;"/><path d="M176.63,790.61c-.77,.68-1.59,1.33-2.44,1.92-.7,.49-.87,1.45-.38,2.15,.3,.43,.78,.66,1.27,.66,.3,0,.61-.09,.88-.28,.95-.66,1.86-1.38,2.72-2.14,.64-.56,.7-1.54,.13-2.18-.56-.64-1.54-.7-2.18-.13Z" style="fill:#0647ff; opacity:.67;"/><path d="M184.49,782.72c-.75-.4-1.68-.12-2.09,.62-.49,.91-1.04,1.8-1.63,2.64-.49,.7-.32,1.66,.38,2.15,.27,.19,.58,.28,.88,.28,.49,0,.96-.23,1.26-.66,.66-.94,1.28-1.94,1.82-2.95,.4-.75,.12-1.68-.62-2.09Z" style="fill:#0647ff; opacity:.67;"/><path d="M142.6,794.99c.48,0,.95-.22,1.25-.63,.5-.69,.35-1.65-.34-2.15-.83-.61-1.64-1.27-2.4-1.97-.62-.58-1.6-.54-2.18,.08-.58,.63-.54,1.6,.08,2.18,.85,.78,1.75,1.52,2.68,2.2,.27,.2,.59,.3,.91,.3Z" style="fill:#0647ff; opacity:.67;"/><path d="M168.72,795.45c-.1,.04-.2,.08-.29,.11-.8,.3-1.2,1.19-.9,1.99,.23,.62,.82,1,1.44,1,.18,0,.37-.03,.54-.1,.11-.04,.22-.08,.33-.13,.79-.31,1.18-1.2,.87-2-.31-.79-1.2-1.18-2-.87Z" style="fill:#0647ff; opacity:.67;"/><path d="M135.8,787.91c.3,0,.59-.08,.86-.26,.71-.47,.9-1.43,.42-2.14-.58-.86-1.11-1.76-1.58-2.68-.39-.76-1.32-1.06-2.07-.67-.76,.39-1.06,1.32-.67,2.07,.52,1.02,1.12,2.03,1.76,2.99,.3,.44,.79,.68,1.28,.68Z" style="fill:#0647ff; opacity:.67;"/><path d="M187.04,773.22c-.84-.12-1.62,.47-1.74,1.31-.14,1.02-.35,2.05-.62,3.05-.22,.82,.27,1.67,1.1,1.88,.13,.03,.26,.05,.4,.05,.68,0,1.31-.46,1.49-1.15,.29-1.11,.53-2.26,.69-3.4,.12-.84-.47-1.62-1.31-1.74Z" style="fill:#0647ff; opacity:.67;"/><path d="M159.08,749.47c-11.75,0-21.32,9.56-21.32,21.32,0,7.59,4.09,14.67,10.66,18.47,.24,.14,.51,.21,.77,.21,.53,0,1.05-.28,1.34-.77,.43-.74,.17-1.68-.56-2.11-5.63-3.25-9.12-9.31-9.12-15.8,0-10.05,8.18-18.23,18.23-18.23s18.23,8.18,18.23,18.23c0,6.49-3.49,12.54-9.12,15.79-.74,.43-.99,1.37-.56,2.11,.43,.74,1.37,.99,2.11,.56,6.57-3.8,10.66-10.88,10.66-18.46,0-11.75-9.56-21.32-21.32-21.32Z" style="fill:#0647ff; opacity:.67;"/></g><rect x="157.29" y="820.88" width="35.7" height="35.7" transform="translate(644.37 121.82) rotate(45)" style="fill:none; opacity:.36; stroke:#b75402; stroke-miterlimit:10;"/><rect x="181.94" y="821.66" width="35.7" height="35.7" transform="translate(652.14 104.61) rotate(45)" style="fill:none; opacity:.36; stroke:#b75402; stroke-miterlimit:10;"/><rect x="878.08" y="861.42" width="35.7" height="35.7" transform="translate(884.15 -375.98) rotate(45)" style="fill:none; opacity:.36; stroke:#b75402; stroke-miterlimit:10;"/><rect x="902.73" y="862.2" width="35.7" height="35.7" transform="translate(891.92 -393.19) rotate(45)" style="fill:none; opacity:.36; stroke:#b75402; stroke-miterlimit:10;"/><rect x="892.41" y="606.2" width="35.7" height="35.7" transform="translate(707.88 -460.87) rotate(45)" style="fill:none; opacity:.36; stroke:#b75402; stroke-miterlimit:10;"/><g style="opacity:.17;"><g><circle cx="236.16" cy="860.45" r="10.28" style="fill:#0647ff;"/><circle cx="252.71" cy="842.57" r="10.28" style="fill:#0647ff;"/><circle cx="268.98" cy="824.89" r="10.28" style="fill:#0647ff;"/><circle cx="285.53" cy="807.01" r="10.28" style="fill:#0647ff;"/></g><g><circle cx="252.81" cy="875.85" r="10.28" style="fill:#0647ff;"/><circle cx="269.36" cy="857.98" r="10.28" style="fill:#0647ff;"/><circle cx="285.63" cy="840.3" r="10.28" style="fill:#0647ff;"/><circle cx="302.17" cy="822.42" r="10.28" style="fill:#0647ff;"/></g><g><circle cx="270.36" cy="892.1" r="10.28" style="fill:#0647ff;"/><circle cx="286.9" cy="874.22" r="10.28" style="fill:#0647ff;"/><circle cx="303.18" cy="856.54" r="10.28" style="fill:#0647ff;"/><circle cx="319.72" cy="838.66" r="10.28" style="fill:#0647ff;"/></g></g><g style="opacity:.36;"><g><circle cx="908.46" cy="1102.04" r="16.76" style="fill:none; stroke:#0647ff; stroke-miterlimit:10;"/><circle cx="935.45" cy="1072.88" r="16.76" style="fill:none; stroke:#0647ff; stroke-miterlimit:10;"/><circle cx="961.99" cy="1044.04" r="16.76" style="fill:none; stroke:#0647ff; stroke-miterlimit:10;"/><circle cx="988.98" cy="1014.88" r="16.76" style="fill:none; stroke:#0647ff; stroke-miterlimit:10;"/></g><g><circle cx="935.62" cy="1127.17" r="16.76" style="fill:none; stroke:#0647ff; stroke-miterlimit:10;"/><circle cx="962.6" cy="1098.01" r="16.76" style="fill:none; stroke:#0647ff; stroke-miterlimit:10;"/><circle cx="989.15" cy="1069.17" r="16.76" style="fill:none; stroke:#0647ff; stroke-miterlimit:10;"/><circle cx="1016.14" cy="1040.01" r="16.76" style="fill:none; stroke:#0647ff; stroke-miterlimit:10;"/></g><g><circle cx="964.24" cy="1153.66" r="16.76" style="fill:none; stroke:#0647ff; stroke-miterlimit:10;"/><circle cx="991.23" cy="1124.5" r="16.76" style="fill:none; stroke:#0647ff; stroke-miterlimit:10;"/><circle cx="1017.77" cy="1095.66" r="16.76" style="fill:none; stroke:#0647ff; stroke-miterlimit:10;"/><circle cx="1044.76" cy="1066.5" r="16.76" style="fill:none; stroke:#0647ff; stroke-miterlimit:10;"/></g></g><circle cx="1046.5" cy="309.5" r="29.5" style="fill:none; opacity:.27; stroke:url(#n); stroke-miterlimit:10; stroke-width:10px;"/></svg>