<?xml version="1.0" encoding="UTF-8"?>
<svg id="a" xmlns="http://www.w3.org/2000/svg" xmlns:xlink="http://www.w3.org/1999/xlink" viewBox="0 0 1366 768">
    <defs>
        <linearGradient id="b" x1="532.47" y1="378.75" x2="1363.39" y2="16.04" gradientUnits="userSpaceOnUse">
            <stop offset="0" stop-color="#d1d1d1"/>
            <stop offset="0" stop-color="#c0c1c2"/>
            <stop offset="0" stop-color="#bf00aa"/>
            <stop offset=".17" stop-color="#a40fa4"/>
            <stop offset=".53" stop-color="#613894"/>
            <stop offset="1" stop-color="#00737f"/>
        </linearGradient>
        <linearGradient id="c" x1="306.42" y1="333.77" x2="426.02" y2="294.94" gradientUnits="userSpaceOnUse">
            <stop offset="0" stop-color="#d1d1d1"/>
            <stop offset="0" stop-color="#b1b800"/>
            <stop offset="0" stop-color="#d4008e"/>
            <stop offset=".24" stop-color="#dc1d70"/>
            <stop offset=".75" stop-color="#f36826"/>
            <stop offset="1" stop-color="#ff9000"/>
            <stop offset="1" stop-color="#e2ff36"/>
            <stop offset="1" stop-color="#a90aff"/>
        </linearGradient>
        <linearGradient id="d" x1="101" y1="286.72" x2="363.62" y2="286.72" gradientUnits="userSpaceOnUse">
            <stop offset="0" stop-color="#d1d1d1"/>
            <stop offset="0" stop-color="#b1b800"/>
            <stop offset="0" stop-color="#fccd56"/>
            <stop offset=".38" stop-color="#fdb838"/>
            <stop offset="1" stop-color="#ff9000"/>
            <stop offset="1" stop-color="#e2ff36"/>
            <stop offset="1" stop-color="#ec00dd"/>
        </linearGradient>
        <linearGradient id="e" x1="101.12" y1="328.71" x2="362.78" y2="243.74" gradientUnits="userSpaceOnUse">
            <stop offset="0" stop-color="#d1d1d1"/>
            <stop offset="0" stop-color="#b1b800"/>
            <stop offset="0" stop-color="#2900e3"/>
            <stop offset=".23" stop-color="#201ddc"/>
            <stop offset=".72" stop-color="#0c68cc"/>
            <stop offset="1" stop-color="#0097c3"/>
            <stop offset="1" stop-color="#e2ff36"/>
            <stop offset="1" stop-color="#ff9000"/>
        </linearGradient>
        <linearGradient id="f" x1="155.41" y1="310.99" x2="306" y2="262.09" xlink:href="#c"/>
        <linearGradient id="g" x1="1025.79" y1="305.63" x2="1162.33" y2="261.3" gradientUnits="userSpaceOnUse">
            <stop offset="0" stop-color="#d1d1d1"/>
            <stop offset="0" stop-color="#b1b800"/>
            <stop offset="0" stop-color="#38008e"/>
            <stop offset=".18" stop-color="#551578"/>
            <stop offset=".56" stop-color="#a14c42"/>
            <stop offset="1" stop-color="#ff9000"/>
            <stop offset="1" stop-color="#e2ff36"/>
            <stop offset="1" stop-color="#a90aff"/>
        </linearGradient>
        <linearGradient id="h" x1="613.23" y1="551.14" x2="668.52" y2="533.19" xlink:href="#g"/>
        <linearGradient id="i" x1="59.43" y1="201.87" x2="114.71" y2="183.92" xlink:href="#g"/>
        <linearGradient id="j" x1="79.72" y1="559.51" x2="135" y2="541.56" xlink:href="#g"/>
        <linearGradient id="k" x1="834.72" y1="383.51" x2="890" y2="365.56" xlink:href="#g"/>
        <clipPath id="l">
            <rect x="978" y="721.5" width="147" height="46" style="fill:none;"/>
        </clipPath>
        <clipPath id="m">
            <rect x="595" y="702.5" width="168" height="65" style="fill:none;"/>
        </clipPath>
        <linearGradient id="n" x1="1239.18" y1="288.66" x2="1304.82" y2="267.34" gradientUnits="userSpaceOnUse">
            <stop offset="0" stop-color="#d1d1d1"/>
            <stop offset="0" stop-color="#b1b800"/>
            <stop offset="0" stop-color="#560d7d"/>
            <stop offset=".26" stop-color="#420f9a"/>
            <stop offset=".82" stop-color="#1015e5"/>
            <stop offset="1" stop-color="#0017ff"/>
        </linearGradient>
    </defs>
    <path
        d="M532,.5c34.66,36.07,87.92,80.04,165.42,107.04,102.6,35.74,164.18,12.65,227.45,58.07,60.6,43.5,40.62,90.89,84.09,142.34,40.43,47.86,131.77,94.52,357.03,85.4V.5H532Z"
        style="fill:url(#b); opacity:.4;"/>
    <g>
        <polygon points="365.61 250.78 303.79 314.97 365.61 378.36 429 314.97 365.61 250.78"
                 style="fill:none; opacity:.38; stroke:url(#c); stroke-miterlimit:10; stroke-width:5px;"/>
        <polygon points="230.65 152.91 101 287.55 230.65 420.52 363.62 287.55 230.65 152.91"
                 style="fill:url(#d); opacity:.5; stroke:url(#e); stroke-miterlimit:10; stroke-width:19px;"/>
        <polygon points="229.95 209.15 154.69 287.3 229.95 364.5 307.14 287.3 229.95 209.15"
                 style="fill:none; opacity:.67; stroke:url(#f); stroke-miterlimit:10; stroke-width:10px;"/>
    </g>
    <g>
        <path
            d="M1165.55,277.82s-.98-53.04-61.88-65.81c-5.87-.72-28.27-2.74-49.87,11.88-25.65,17.36-30.42,44.83-31.16,49.51-.63,5.02-3.36,30.97,14.79,54.26,16.05,20.6,37.89,25.63,43.64,26.76,0,0,41.25,8.84,69.73-26.52,.54-.85,10.21-16.45,2.46-31.92-8.72-17.4-30.54-16.78-32.41-16.7-2.28,.1-23.03,1.37-29.47,17.68-4.53,11.49-1.32,27.41,8.84,32.41,8.31,4.09,18.09-.69,18.66-.98,8.4-4.25,11.12-12.51,12.77-11.79,1.54,.68,1.39,8.94-2.95,14.73-8.4,11.22-32.34,13.01-48.13,1.96-14.98-10.48-16.54-28.28-16.7-30.45-1.14-16.02,7.67-27.2,11.79-32.41,3.07-3.89,12.99-15.39,30.45-19.64,4.33-1.05,17.46-4.05,32.41,1.96,17.28,6.96,25.04,21.15,27.01,25.05Z"
            style="fill:url(#g); opacity:.12;"/>
        <path
            d="M669.82,539.88s-.4-21.47-25.05-26.64c-2.38-.29-11.45-1.11-20.19,4.81-10.38,7.03-12.32,18.15-12.61,20.04-.25,2.03-1.36,12.54,5.99,21.97,6.5,8.34,15.34,10.38,17.67,10.84,0,0,16.7,3.58,28.23-10.74,.22-.34,4.13-6.66,.99-12.92-3.53-7.05-12.36-6.79-13.12-6.76-.92,.04-9.32,.55-11.93,7.16-1.83,4.65-.53,11.1,3.58,13.12,3.36,1.66,7.33-.28,7.56-.4,3.4-1.72,4.5-5.07,5.17-4.77,.63,.28,.56,3.62-1.19,5.96-3.4,4.54-13.1,5.27-19.48,.8-6.07-4.24-6.7-11.45-6.76-12.33-.46-6.49,3.11-11.01,4.77-13.12,1.24-1.58,5.26-6.23,12.33-7.95,1.75-.43,7.07-1.64,13.12,.8,6.99,2.82,10.14,8.56,10.94,10.14Z"
            style="fill:url(#h); opacity:.12;"/>
        <path
            d="M116.01,190.61s-.4-21.47-25.05-26.64c-2.38-.29-11.45-1.11-20.19,4.81-10.38,7.03-12.32,18.15-12.61,20.04-.25,2.03-1.36,12.54,5.99,21.97,6.5,8.34,15.34,10.38,17.67,10.84,0,0,16.7,3.58,28.23-10.74,.22-.34,4.13-6.66,.99-12.92-3.53-7.05-12.36-6.79-13.12-6.76-.92,.04-9.32,.55-11.93,7.16-1.83,4.65-.53,11.1,3.58,13.12,3.36,1.66,7.33-.28,7.56-.4,3.4-1.72,4.5-5.07,5.17-4.77,.63,.28,.56,3.62-1.19,5.96-3.4,4.54-13.1,5.27-19.48,.8-6.07-4.24-6.7-11.45-6.76-12.33-.46-6.49,3.11-11.01,4.77-13.12,1.24-1.58,5.26-6.23,12.33-7.95,1.75-.43,7.07-1.64,13.12,.8,6.99,2.82,10.14,8.56,10.94,10.14Z"
            style="fill:url(#i); opacity:.12;"/>
        <path
            d="M136.31,548.25s-.4-21.47-25.05-26.64c-2.38-.29-11.45-1.11-20.19,4.81-10.38,7.03-12.32,18.15-12.61,20.04-.25,2.03-1.36,12.54,5.99,21.97,6.5,8.34,15.34,10.38,17.67,10.84,0,0,16.7,3.58,28.23-10.74,.22-.34,4.13-6.66,.99-12.92-3.53-7.05-12.36-6.79-13.12-6.76-.92,.04-9.32,.55-11.93,7.16-1.83,4.65-.53,11.1,3.58,13.12,3.36,1.66,7.33-.28,7.56-.4,3.4-1.72,4.5-5.07,5.17-4.77,.63,.28,.56,3.62-1.19,5.96-3.4,4.54-13.1,5.27-19.48,.8-6.07-4.24-6.7-11.45-6.76-12.33-.46-6.49,3.11-11.01,4.77-13.12,1.24-1.58,5.26-6.23,12.33-7.95,1.75-.43,7.07-1.64,13.12,.8,6.99,2.82,10.14,8.56,10.94,10.14Z"
            style="fill:url(#j); opacity:.12;"/>
        <path
            d="M891.31,372.25s-.4-21.47-25.05-26.64c-2.38-.29-11.45-1.11-20.19,4.81-10.38,7.03-12.32,18.15-12.61,20.04-.25,2.03-1.36,12.54,5.99,21.97,6.5,8.34,15.34,10.38,17.67,10.84,0,0,16.7,3.58,28.23-10.74,.22-.34,4.13-6.66,.99-12.92-3.53-7.05-12.36-6.79-13.12-6.76-.92,.04-9.32,.55-11.93,7.16-1.83,4.65-.53,11.1,3.58,13.12,3.36,1.66,7.33-.28,7.56-.4,3.4-1.72,4.5-5.07,5.17-4.77,.63,.28,.56,3.62-1.19,5.96-3.4,4.54-13.1,5.27-19.48,.8-6.07-4.24-6.7-11.45-6.76-12.33-.46-6.49,3.11-11.01,4.77-13.12,1.24-1.58,5.26-6.23,12.33-7.95,1.75-.43,7.07-1.64,13.12,.8,6.99,2.82,10.14,8.56,10.94,10.14Z"
            style="fill:url(#k); opacity:.12;"/>
    </g>
    <g>
        <g>
            <path
                d="M217,767.5s.2-14.64,7.2-25.1c9.59-14.31,24.6-17.68,27.76-18.32,0,0,37.44-25.19,46.79,8.73,.36-.13,3.39-1.16,6.25,.68,2.48,1.59,3.02,4.18,3.11,4.64,1.02-1.2,10.13-11.58,23.71-10.44,10.33,.87,16.85,8.09,18.95,10.44,7.99,8.95,9.23,29.36,9.23,29.36H217"
                style="fill:#8bc53f; opacity:.43;"/>
            <path
                d="M360,767.5s-18.7-19.83-34.87-27.18c-15.41-7-24.86-6.21-27.12-5.74-9.04,1.91-16.27,5.74-16.27,5.74,0,0-45.94,14.68-58.11,12.21-.66-.13-2.98-.69-4.92,.53-3.62,2.26-3.42,9.1-2.71,14.45h144"
                style="fill:#006838; opacity:.43;"/>
            <path
                d="M226.99,767.53s-.56-29.98,24.12-26.43c0,0,24.67-25.19,45.09,0,0,0,51.9-18.11,51.9,15.6,1.05-.05,5.12-.13,8.9,2.8,3.83,2.97,4.74,7.02,4.94,8.03H226.99Z"
                style="fill:#009345; opacity:.43;"/>
        </g>
        <g style="clip-path:url(#l);">
            <g>
                <path
                    d="M981.95,767.74s3.4-37.71,33.18-37.1c0,0,37.44-25.19,46.79,8.73,2.23,.25,4.46,.51,6.68,.76,.89,1.52,1.78,3.04,2.67,4.55,0,0,20.65-23.66,42.66,0,12.82,15.37,12.45,23.76,8.62,28.61-14.76,18.69-95.99,3.95-140.61-5.56Z"
                    style="fill:#8bc53f; opacity:.43;"/>
                <path
                    d="M999.82,777.16h-21.27s-3.91-20.56,8.25-18.08,58.11-12.21,58.11-12.21c0,0,28.93-15.3,43.39,0,14.46,15.3,34.26,26.43,34.26,26.43l-.2,3.86h-122.55"
                    style="fill:#006838; opacity:.43;"/>
                <path
                    d="M990.17,776.08s-.56-29.98,24.12-26.43c0,0,24.67-25.19,45.09,0,0,0,51.9-18.11,51.9,15.6l13.84,10.83h-134.95Z"
                    style="fill:#009345; opacity:.43;"/>
            </g>
        </g>
        <g style="clip-path:url(#m);">
            <g>
                <path
                    d="M613.98,775.72c-6.3-8.46-6.56-14.23-5.74-17.87,1.52-6.72,7-7.29,12.63-17.49,4.47-8.09,2.7-10.79,6.51-15.7,2.93-3.77,8.67-8.24,21.25-9.51,7.1-10.26,11.93-12.05,15.13-11.55,6.14,.97,6.99,10.5,14.89,11.91,4.66,.83,6.61-2.08,13.19-1.28,4.06,.5,7.25,2.09,9.36,3.4,.57,1.19,1.14,2.39,1.71,3.58,2.55,.51,5.1,1.01,7.65,1.52,9.82-5.09,14.52-4.48,16.98-2.71,4.67,3.36,2.11,11.48,7.27,14.62,4.23,2.58,8.26-1.47,12.64-.17,9.23,2.74,14.19,27.84,8.62,39.37-13.32,27.59-102.76,10.53-142.08,1.85Z"
                    style="fill:#8bc53f; opacity:.43;"/>
                <path
                    d="M639.69,773.38h-21.27c-.84-4.68-2.11-15.77,4.47-24.82,2.05-2.81,4.64-6.73,9.38-8.21,4.45-1.39,6.88,.52,10.21-1.28,4.12-2.22,4.33-7.26,5.93-10.97,2.24-5.2,8.59-10.96,26.4-13.7,3.1,1.78,7.84,3.89,13.61,3.83,9.25-.1,11.15-5.66,17.02-4.68,10.04,1.68,10.44,18.98,22.31,21.55,4.5,.97,5.24-1.34,10.21,0,6.58,1.77,10.38,7.2,15.13,14.19,2.75,4.05,6.44,10.31,9.35,18.78-.07,1.77-.13,3.55-.2,5.32h-122.55Z"
                    style="fill:#006838; opacity:.43;"/>
                <path
                    d="M598.13,767.49c-3.91-13.06-1.84-19.31,.95-22.61,3.48-4.1,8.25-3.79,15.31-9.36,4.64-3.66,7.58-7.73,9.36-10.64,3.5-.38,8.87-1.32,14.85-4,5.16-2.31,5.93-3.74,10.4-5,2.17-.61,11.3-3.27,16.64,1.28,2.44,2.08,2.1,3.89,4.9,6.02,3.16,2.4,7,2.69,9.78,2.55,12.54-3.67,25.46-.31,32.76,8.51,5.84,7.06,6.18,15.31,6.15,18.34,.89,.04,6.89,.38,10.87,5.48,3.05,3.91,3.02,8.2,2.97,9.42h-134.95Z"
                    style="fill:#009345; opacity:.43;"/>
            </g>
        </g>
    </g>
    <g>
        <path
            d="M240.49,324.07c-1.12-.18-2.25-.06-3.28,.34v-25.36c5.12-2.39,8.47-7.57,8.47-13.3,0-8.1-6.59-14.68-14.68-14.68s-14.68,6.59-14.68,14.68c0,5.73,3.35,10.91,8.47,13.3v16.89c-1.03-.4-2.16-.52-3.28-.34-2.41,.39-4.33,2.28-4.97,4.66-1.09-.47-2.3-.63-3.5-.43-2.41,.39-4.33,2.28-4.97,4.66-1.09-.47-2.3-.63-3.5-.43-2.96,.48-5.19,3.21-5.19,6.36v13.58c0,2.24,.28,4.47,.82,6.64l2.72,10.87c.46,1.86,.7,3.77,.7,5.68v13.81c0,1.09,.89,1.98,1.98,1.98s1.98-.89,1.98-1.98v-13.81c0-2.24-.28-4.47-.82-6.64l-2.72-10.87c-.46-1.86-.7-3.77-.7-5.68v-13.58c0-1.2,.82-2.28,1.86-2.45,.68-.11,1.34,.07,1.85,.5,.51,.43,.79,1.06,.79,1.72,0,1.09,.89,1.98,1.98,1.98s1.98-.89,1.98-1.98v-4.01c0-1.2,.82-2.28,1.86-2.45,.68-.11,1.34,.07,1.85,.5,.51,.43,.79,1.06,.79,1.72,0,1.09,.89,1.98,1.98,1.98s1.98-.89,1.98-1.98v-4.01c0-1.2,.82-2.28,1.86-2.45,.68-.11,1.34,.07,1.85,.5,.51,.43,.79,1.06,.79,1.72,0,1.09,.89,1.98,1.98,1.98s1.98-.89,1.98-1.98v-35.76c0-1.2,.82-2.28,1.86-2.45,.68-.11,1.34,.07,1.85,.5,.51,.43,.79,1.06,.79,1.72v44.46c0,1.09,.89,1.98,1.98,1.98s1.98-.89,1.98-1.98c0-.66,.29-1.29,.79-1.72,.51-.44,1.17-.61,1.85-.5,1.04,.17,1.86,1.24,1.86,2.45v13.92c0,1.71-.19,3.42-.56,5.08l-3.02,13.61c-.43,1.95-.65,3.95-.65,5.94v12.03c0,1.09,.89,1.98,1.98,1.98s1.98-.89,1.98-1.98v-12.03c0-1.71,.19-3.42,.56-5.08l3.02-13.61c.43-1.95,.65-3.95,.65-5.94v-13.92c0-3.14-2.23-5.88-5.18-6.36Zm-10.53-44.46c-2.96,.48-5.19,3.21-5.19,6.36v8.51c-2.77-1.98-4.51-5.22-4.51-8.74,0-5.91,4.81-10.72,10.72-10.72s10.72,4.81,10.72,10.72c0,3.52-1.73,6.76-4.51,8.74v-8.74c0-1.83-.8-3.55-2.19-4.74-1.39-1.18-3.23-1.69-5.05-1.4Z"
            style="fill:#0647ff; opacity:.67;"/>
        <path
            d="M195.01,283.6c.08,0,.15,.01,.23,.01,.99,0,1.85-.75,1.97-1.76,.15-1.32,.38-2.64,.68-3.93,.25-1.06-.41-2.13-1.47-2.38-1.07-.25-2.13,.41-2.38,1.47-.34,1.44-.6,2.92-.76,4.39-.12,1.09,.66,2.07,1.74,2.19Z"
            style="fill:#0647ff; opacity:.67;"/>
        <path
            d="M261.7,271.1c.34,.71,1.05,1.13,1.79,1.13,.29,0,.58-.06,.85-.19,.99-.47,1.4-1.65,.93-2.64-.64-1.33-1.36-2.65-2.15-3.9-.58-.92-1.81-1.2-2.73-.62-.92,.58-1.2,1.81-.62,2.73,.71,1.12,1.36,2.3,1.93,3.49Z"
            style="fill:#0647ff; opacity:.67;"/>
        <path
            d="M206.41,261.44c.48,0,.97-.18,1.35-.53,.97-.91,2-1.76,3.07-2.55,.88-.65,1.07-1.89,.42-2.77-.65-.88-1.89-1.07-2.77-.42-1.19,.88-2.34,1.84-3.42,2.85-.8,.75-.84,2-.09,2.8,.39,.42,.92,.63,1.45,.63Z"
            style="fill:#0647ff; opacity:.67;"/>
        <path
            d="M197.95,271.32c.29,.14,.59,.21,.89,.21,.72,0,1.42-.4,1.77-1.09,.6-1.18,1.27-2.34,2-3.45,.6-.91,.35-2.14-.56-2.75s-2.14-.35-2.75,.56c-.82,1.24-1.57,2.53-2.24,3.85-.49,.98-.1,2.17,.88,2.66Z"
            style="fill:#0647ff; opacity:.67;"/>
        <path
            d="M264.26,278.64c.27,1.29,.48,2.62,.6,3.94,.09,1.03,.96,1.8,1.97,1.8,.06,0,.12,0,.18,0,1.09-.1,1.89-1.06,1.79-2.15-.14-1.48-.36-2.96-.67-4.4-.23-1.07-1.28-1.75-2.35-1.53-1.07,.23-1.75,1.28-1.53,2.35Z"
            style="fill:#0647ff; opacity:.67;"/>
        <path
            d="M241.18,253.29c1.26,.4,2.52,.87,3.73,1.42,.26,.12,.54,.17,.81,.17,.76,0,1.48-.44,1.81-1.17,.45-1,0-2.17-1-2.62-1.35-.61-2.75-1.14-4.17-1.58-1.04-.33-2.16,.25-2.48,1.3-.33,1.04,.25,2.16,1.3,2.48Z"
            style="fill:#0647ff; opacity:.67;"/>
        <path
            d="M229.37,251.77c1.32-.06,2.67-.05,3.99,.04,.05,0,.09,0,.14,0,1.03,0,1.9-.8,1.97-1.85,.08-1.09-.75-2.04-1.84-2.11-1.47-.1-2.98-.12-4.45-.05-1.09,.05-1.94,.98-1.89,2.07s.98,1.93,2.07,1.89Z"
            style="fill:#0647ff; opacity:.67;"/>
        <path
            d="M216.98,254.57c.26,0,.52-.05,.77-.16,1.22-.52,2.49-.97,3.76-1.33,1.05-.3,1.66-1.4,1.35-2.45-.3-1.05-1.4-1.66-2.45-1.35-1.42,.41-2.84,.91-4.2,1.49-1.01,.43-1.48,1.59-1.05,2.6,.32,.76,1.05,1.21,1.83,1.21Z"
            style="fill:#0647ff; opacity:.67;"/>
        <path
            d="M251.75,258.8c1.05,.81,2.06,1.69,3.01,2.62,.39,.38,.88,.56,1.38,.56s1.03-.2,1.42-.6c.76-.78,.75-2.04-.03-2.8-1.06-1.03-2.19-2.02-3.36-2.92-.87-.67-2.11-.51-2.78,.36-.67,.87-.51,2.11,.36,2.78Z"
            style="fill:#0647ff; opacity:.67;"/>
        <path
            d="M197.93,293.75c-.31-1.29-.55-2.61-.71-3.93-.13-1.09-1.11-1.86-2.2-1.73-1.09,.13-1.86,1.12-1.73,2.2,.18,1.47,.44,2.95,.79,4.39,.22,.91,1.03,1.52,1.92,1.52,.15,0,.31-.02,.47-.06,1.06-.26,1.72-1.33,1.46-2.39Z"
            style="fill:#0647ff; opacity:.67;"/>
        <path
            d="M253.54,311.21c-.99,.88-2.05,1.71-3.14,2.47-.9,.62-1.12,1.86-.49,2.76,.39,.55,1,.85,1.63,.85,.39,0,.79-.12,1.13-.36,1.21-.85,2.39-1.77,3.5-2.75,.82-.73,.89-1.98,.17-2.8-.73-.82-1.98-.89-2.8-.17Z"
            style="fill:#0647ff; opacity:.67;"/>
        <path
            d="M263.63,301.07c-.96-.52-2.16-.16-2.68,.8-.63,1.17-1.34,2.31-2.1,3.39-.63,.9-.41,2.13,.48,2.76,.35,.24,.74,.36,1.14,.36,.62,0,1.24-.29,1.62-.84,.85-1.21,1.64-2.49,2.34-3.79,.52-.96,.16-2.16-.8-2.68Z"
            style="fill:#0647ff; opacity:.67;"/>
        <path
            d="M209.82,316.83c.61,0,1.21-.28,1.6-.81,.64-.88,.45-2.12-.43-2.77-1.07-.78-2.11-1.63-3.08-2.54-.8-.74-2.06-.69-2.8,.11-.74,.8-.69,2.06,.11,2.8,1.09,1.01,2.24,1.96,3.44,2.83,.35,.26,.76,.38,1.17,.38Z"
            style="fill:#0647ff; opacity:.67;"/>
        <path
            d="M243.37,317.43c-.13,.05-.25,.1-.38,.14-1.02,.39-1.54,1.53-1.15,2.55,.3,.79,1.05,1.28,1.85,1.28,.23,0,.47-.04,.7-.13,.14-.05,.28-.11,.42-.16,1.02-.4,1.52-1.55,1.12-2.57-.4-1.02-1.55-1.52-2.57-1.12Z"
            style="fill:#0647ff; opacity:.67;"/>
        <path
            d="M201.08,307.74c.38,0,.76-.11,1.1-.34,.91-.61,1.15-1.84,.54-2.75-.74-1.1-1.42-2.26-2.02-3.44-.5-.97-1.69-1.36-2.67-.86-.97,.5-1.36,1.69-.86,2.67,.67,1.32,1.43,2.61,2.26,3.84,.38,.57,1.01,.88,1.65,.88Z"
            style="fill:#0647ff; opacity:.67;"/>
        <path
            d="M266.9,288.87c-1.08-.15-2.09,.6-2.24,1.68-.19,1.31-.45,2.63-.79,3.91-.28,1.06,.35,2.14,1.41,2.42,.17,.04,.34,.07,.51,.07,.88,0,1.68-.59,1.91-1.47,.38-1.43,.68-2.9,.88-4.37,.15-1.08-.6-2.09-1.68-2.24Z"
            style="fill:#0647ff; opacity:.67;"/>
        <path
            d="M230.99,258.36c-15.1,0-27.38,12.28-27.38,27.39,0,9.75,5.25,18.84,13.7,23.72,.31,.18,.65,.27,.99,.27,.68,0,1.35-.35,1.72-.99,.55-.95,.22-2.16-.72-2.71-7.23-4.18-11.72-11.96-11.72-20.29,0-12.92,10.51-23.42,23.42-23.42s23.42,10.51,23.42,23.42c0,8.34-4.49,16.11-11.71,20.29-.95,.55-1.27,1.76-.72,2.71,.55,.95,1.76,1.27,2.71,.72,8.44-4.89,13.69-13.97,13.69-23.72,0-15.1-12.28-27.38-27.38-27.38Z"
            style="fill:#0647ff; opacity:.67;"/>
    </g>
    <rect x="259.39" y="537.4" width="35.7" height="35.7" transform="translate(473.82 -33.41) rotate(45)"
          style="fill:none; opacity:.36; stroke:#b75402; stroke-miterlimit:10;"/>
    <rect x="284.04" y="538.18" width="35.7" height="35.7" transform="translate(481.59 -50.61) rotate(45)"
          style="fill:none; opacity:.36; stroke:#b75402; stroke-miterlimit:10;"/>
    <rect x="992.18" y="559.94" width="35.7" height="35.7" transform="translate(704.39 -544.97) rotate(45)"
          style="fill:none; opacity:.36; stroke:#b75402; stroke-miterlimit:10;"/>
    <rect x="1016.83" y="560.72" width="35.7" height="35.7" transform="translate(712.16 -562.17) rotate(45)"
          style="fill:none; opacity:.36; stroke:#b75402; stroke-miterlimit:10;"/>
    <rect x="937.51" y="471.72" width="35.7" height="35.7" transform="translate(626 -532.15) rotate(45)"
          style="fill:none; opacity:.36; stroke:#b75402; stroke-miterlimit:10;"/>
    <g style="opacity:.17;">
        <g>
            <circle cx="330.01" cy="400.92" r="13.2" style="fill:#0647ff;"/>
            <circle cx="351.27" cy="377.96" r="13.2" style="fill:#0647ff;"/>
            <circle cx="372.18" cy="355.24" r="13.2" style="fill:#0647ff;"/>
            <circle cx="393.43" cy="332.28" r="13.2" style="fill:#0647ff;"/>
        </g>
        <g>
            <circle cx="351.4" cy="420.72" r="13.2" style="fill:#0647ff;"/>
            <circle cx="372.66" cy="397.75" r="13.2" style="fill:#0647ff;"/>
            <circle cx="393.56" cy="375.04" r="13.2" style="fill:#0647ff;"/>
            <circle cx="414.82" cy="352.07" r="13.2" style="fill:#0647ff;"/>
        </g>
        <g>
            <circle cx="373.95" cy="441.58" r="13.2" style="fill:#0647ff;"/>
            <circle cx="395.2" cy="418.62" r="13.2" style="fill:#0647ff;"/>
            <circle cx="416.11" cy="395.9" r="13.2" style="fill:#0647ff;"/>
            <circle cx="437.36" cy="372.94" r="13.2" style="fill:#0647ff;"/>
        </g>
    </g>
    <g style="opacity:.36;">
        <g>
            <circle cx="1165.57" cy="572.56" r="16.76" style="fill:none; stroke:#0647ff; stroke-miterlimit:10;"/>
            <circle cx="1192.55" cy="543.4" r="16.76" style="fill:none; stroke:#0647ff; stroke-miterlimit:10;"/>
            <circle cx="1219.1" cy="514.56" r="16.76" style="fill:none; stroke:#0647ff; stroke-miterlimit:10;"/>
            <circle cx="1246.09" cy="485.4" r="16.76" style="fill:none; stroke:#0647ff; stroke-miterlimit:10;"/>
        </g>
        <g>
            <circle cx="1192.72" cy="597.69" r="16.76" style="fill:none; stroke:#0647ff; stroke-miterlimit:10;"/>
            <circle cx="1219.71" cy="568.53" r="16.76" style="fill:none; stroke:#0647ff; stroke-miterlimit:10;"/>
            <circle cx="1246.25" cy="539.69" r="16.76" style="fill:none; stroke:#0647ff; stroke-miterlimit:10;"/>
            <circle cx="1273.24" cy="510.53" r="16.76" style="fill:none; stroke:#0647ff; stroke-miterlimit:10;"/>
        </g>
        <g>
            <circle cx="1221.34" cy="624.18" r="16.76" style="fill:none; stroke:#0647ff; stroke-miterlimit:10;"/>
            <circle cx="1248.33" cy="595.02" r="16.76" style="fill:none; stroke:#0647ff; stroke-miterlimit:10;"/>
            <circle cx="1274.88" cy="566.18" r="16.76" style="fill:none; stroke:#0647ff; stroke-miterlimit:10;"/>
            <circle cx="1301.86" cy="537.02" r="16.76" style="fill:none; stroke:#0647ff; stroke-miterlimit:10;"/>
        </g>
    </g>
    <circle cx="1272" cy="278" r="29.5"
            style="fill:none; opacity:.27; stroke:url(#n); stroke-miterlimit:10; stroke-width:10px;"/>
</svg>
